/* XPM */
static char *diamond[] = {
/* columns rows colors chars-per-pixel */
"24 24 181 2 ",
"   c #241D3C",
".  c #28343F",
"X  c #27333E",
"o  c #2A2A44",
"O  c #282542",
"+  c #2B3644",
"@  c #2D3B46",
"#  c #2E3B4B",
"$  c #2F374B",
"%  c #30364E",
"&  c #2B3450",
"*  c #333C55",
"=  c #363758",
"-  c #313F59",
";  c #393D5D",
":  c #3A3F62",
">  c #2D4547",
",  c #2D4B40",
"<  c #34444B",
"1  c #33594D",
"2  c #2C4450",
"3  c #314854",
"4  c #3A4956",
"5  c #33405A",
"6  c #3A455E",
"7  c #3C4A59",
"8  c #394152",
"9  c #2D5551",
"0  c #335659",
"q  c #335C5D",
"w  c #36654B",
"e  c #3D6B5A",
"r  c #3A765B",
"t  c #3C4362",
"y  c #3E4669",
"u  c #3F5767",
"i  c #3F5D61",
"p  c #3E506C",
"a  c #3B5171",
"s  c #2F686E",
"d  c #3E6763",
"f  c #3D6D64",
"g  c #336162",
"h  c #3F7E64",
"j  c #396676",
"k  c #3C7E71",
"l  c #437D58",
"z  c #424C6D",
"x  c #454A67",
"c  c #43566D",
"v  c #425370",
"b  c #435B73",
"n  c #465A79",
"m  c #4C5E79",
"M  c #5C5D7A",
"N  c #436D69",
"B  c #466A69",
"V  c #407F65",
"C  c #44766A",
"Z  c #476F77",
"A  c #486478",
"S  c #596773",
"D  c #487077",
"F  c #477078",
"G  c #457C70",
"H  c #616E7B",
"J  c #637F79",
"K  c #3D855E",
"L  c #3D8964",
"P  c #43835C",
"I  c #408065",
"U  c #4D876F",
"Y  c #448D61",
"T  c #57866A",
"R  c #4E8870",
"E  c #448275",
"W  c #5B827D",
"Q  c #67A378",
"!  c #446B84",
"~  c #4A6381",
"^  c #556B86",
"/  c #47748A",
"(  c #587A96",
")  c #606681",
"_  c #666886",
"`  c #696C8A",
"'  c #6D7996",
"]  c #458483",
"[  c #5F8D8E",
"{  c #45958D",
"}  c #489488",
"|  c #599682",
" . c #488D9F",
".. c #46899B",
"X. c #538C93",
"o. c #508494",
"O. c #459097",
"+. c #49959A",
"@. c #4A999A",
"#. c #5D9E92",
"$. c #65928E",
"%. c #729388",
"&. c #6B9391",
"*. c #59A291",
"=. c #63A785",
"-. c #72A69F",
";. c #73B09A",
":. c #74BB9D",
">. c #498FA5",
",. c #4C93A5",
"<. c #5497A8",
"1. c #719AB2",
"2. c #7C94B0",
"3. c #4CA1A8",
"4. c #4DA4B3",
"5. c #5CABBB",
"6. c #71A4AE",
"7. c #67B7AD",
"8. c #76B5A2",
"9. c #60A9BF",
"0. c #6FABBF",
"q. c #74A8B9",
"w. c #64BABB",
"e. c #6AC1AF",
"r. c #7AC2AF",
"t. c #78D0C0",
"y. c #79D5CC",
"u. c #80A097",
"i. c #818AA1",
"p. c #8591A2",
"a. c #8799A9",
"s. c #8299A9",
"d. c #9797AA",
"f. c #8A99B4",
"g. c #97A0AC",
"h. c #9CA2A8",
"j. c #9BADBE",
"k. c #81D0AD",
"l. c #85CFB1",
"z. c #97C9B3",
"x. c #87D6B8",
"c. c #98DEB7",
"v. c #AED2BA",
"b. c #88E0BF",
"n. c #9AA9C6",
"m. c #93B0C1",
"M. c #83C1C8",
"N. c #89D5C0",
"B. c #B2C0CE",
"V. c #A5D9C7",
"C. c #A2CDD0",
"Z. c #89E0C0",
"A. c #8FE9C3",
"S. c #93E7C1",
"D. c #93EAC1",
"F. c #98EAC2",
"G. c #ABE5CB",
"H. c #ACE8CE",
"J. c #B8E7CB",
"K. c #B1E5D1",
"L. c #B6E9D7",
"P. c #C8D3CF",
"I. c #D5D9D8",
"U. c #CEE1DF",
"Y. c #D4E9DF",
"T. c #D6E8D6",
"R. c #C8F9D8",
"E. c #E3F9DF",
"W. c #D5E1E3",
"Q. c #DBE5E5",
"!. c #DEE1E8",
"~. c #DFF3E3",
"^. c #E3E1E9",
"/. c #EAEEE9",
"(. c #E6EAE8",
"). c #EFF7E8",
"_. c #E5FFE3",
"`. c #F1F5EB",
"'. c #F5FEE8",
"]. c #FBFFEB",
"[. c None",
/* pixels */
"[.[.[.[.[.[.[.[.[.[.[.[.[.[.[.[.[.[.[.[.[.[.[.[.",
"[.[.[.[.[.[.[.[.[.[.[.[.[.[.[.[.[.[.[.[.[.[.[.[.",
"[.[.[.[.[.[.[.[.[.[.f f f d g q q 0 # + [.[.[.[.",
"[.[.[.[.[.[.[.[.9 9 | k.r.7.+.! A n 6 $ + [.[.[.",
"[.[.[.[.[.[.[.s D -.v.R.R.L.C.j.' z t * $ + [.[.",
"[.[.[.[.[.[.f X.M.~.].].].'.).Q.p.; ; t t + [.[.",
"[.[.[.[.[.f 8.G._.'.'.'.'.).Q.H.&.; : v b % [.[.",
"[.[.[.[.U ;.J._.].].)./.).W.K.D.$.: z B d $ [.[.",
"[.[.[.0 | c._.].'.)./.!.W.K.D.D.$.t A E r # [.[.",
"[.[.# b C Q T.].'.(.^.W.G.S.D.D.&.t e E ..3 [.[.",
"[.[.> B G #.W.`./.^.U.J.D.D.A.t.X.b E 3.,.- [.[.",
"[.[.> r { 0.B.I.!.W.K.b.Z.x.r.<.o.o.<.4.>.- [.[.",
"[.[.q O.q.f.) d.W.G.F.b.w.o.b p ' p.U O.>.5 [.[.",
"[.[.f 1.2._ 6 M g.J.z.[ / a = = ( 6.P L L * [.[.",
"[.[.i i.` ; y 5 S I.d.; t y t 6 ! ,.U l w & [.[.",
"[.[.2 x x t n e T P.d.t b ~ m t t m p.H $ [.[.[.",
"[.[.+ = y b N E *.V.s.c N C N b : x 2.^ O [.[.[.",
"[.[.+ * c D h { 5.x.6.D L K V Z A A ..j o [.[.[.",
"[.[.[.+ 1 L @.4.9.j.&.V O.3.@.V =.:.c & [.[.[.[.",
"[.[.[.[., 1 j ..9.n.%.Y e.y.7.e B W 8 [.[.[.[.[.",
"[.[.[.[.[.X X j <.p.J l :.l.;.7 O o [.[.[.[.[.[.",
"[.[.[.[.[.[.[.2 3 4 < > 4 7 7 [.[.[.[.[.[.[.[.[.",
"[.[.[.[.[.[.[.[.[.[.[.[.[.  [.[.[.[.[.[.[.[.[.[.",
"[.[.[.[.[.[.[.[.[.[.[.[.[.[.[.[.[.[.[.[.[.[.[.[."
};
