/* XPM */
static char *player_test[] = {
/* columns rows colors chars-per-pixel */
"32 40 169 2 ",
"   c #060007",
".  c #050109",
"X  c #09020D",
"o  c #17060B",
"O  c #0D071B",
"+  c #0F081B",
"@  c #080414",
"#  c #120B1D",
"$  c #1F0E1D",
"%  c #170513",
"&  c #220D0F",
"*  c #33130F",
"=  c #3A150F",
"-  c #200F1D",
";  c #25121E",
":  c #36161E",
">  c #080D20",
",  c #060B24",
"<  c #150E20",
"1  c #0D1026",
"2  c #16182C",
"3  c #1B1221",
"4  c #0A1D3B",
"5  c #261220",
"6  c #2C1520",
"7  c #2C1A25",
"8  c #2D1C28",
"9  c #261924",
"0  c #301720",
"q  c #351A23",
"w  c #361D27",
"e  c #01222F",
"r  c #112B35",
"t  c #1D333A",
"y  c #2D212C",
"u  c #382027",
"i  c #35202B",
"p  c #3D232A",
"a  c #3C2B2F",
"s  c #3F2E31",
"d  c #4C2425",
"f  c #48262A",
"g  c #532725",
"h  c #562926",
"j  c #5A2B27",
"k  c #542A29",
"l  c #5D2C29",
"z  c #5C312F",
"x  c #512F31",
"c  c #4F3835",
"v  c #4A3638",
"b  c #5E3332",
"n  c #533C38",
"m  c #5E3838",
"M  c #612F2B",
"N  c #63312C",
"B  c #643632",
"V  c #663935",
"C  c #6B3A35",
"Z  c #633D3D",
"A  c #6A3E3B",
"S  c #5D453D",
"D  c #6B413E",
"F  c #694A3F",
"G  c #65473E",
"H  c #70423E",
"J  c #082445",
"K  c #193859",
"L  c #273147",
"P  c #164D4C",
"I  c #18504D",
"U  c #1A744C",
"Y  c #1A7156",
"T  c #176E4D",
"R  c #21744D",
"E  c #217A48",
"W  c #2B6A56",
"Q  c #217956",
"!  c #38775A",
"~  c #094876",
"^  c #344F67",
"/  c #3F586F",
"(  c #3B536A",
")  c #584140",
"_  c #6E4441",
"`  c #664E46",
"'  c #704643",
"]  c #734845",
"[  c #605853",
"{  c #6A5751",
"}  c #755E56",
"|  c #7B6055",
" . c #7E685D",
".. c #4B6A60",
"X. c #7C6960",
"o. c #726E62",
"O. c #667C6A",
"+. c #84634E",
"@. c #977156",
"#. c #997459",
"$. c #A27A5B",
"%. c #A87F5E",
"&. c #9E7D67",
"*. c #278749",
"=. c #2D9848",
"-. c #299049",
";. c #33984B",
":. c #349848",
">. c #298B52",
",. c #3C8159",
"<. c #319851",
"1. c #479557",
"2. c #4C9F55",
"3. c #4CA055",
"4. c #69886D",
"5. c #74926C",
"6. c #6B9274",
"7. c #A4836B",
"8. c #BD8F66",
"9. c #A68773",
"0. c #A78873",
"q. c #BC997E",
"w. c #C8976B",
"e. c #CE9E74",
"r. c #DCA979",
"t. c #044D82",
"y. c #035385",
"u. c #105983",
"i. c #036EA8",
"p. c #0470AD",
"a. c #016FB2",
"s. c #0170B2",
"d. c #178686",
"f. c #0D8499",
"g. c #108696",
"h. c #169495",
"j. c #3697A9",
"k. c #6DAAB8",
"l. c #028AC7",
"z. c #0A88C4",
"x. c #0A92CF",
"c. c #008DD6",
"v. c #0196D6",
"b. c #0997D5",
"n. c #049CDD",
"m. c #0097E0",
"M. c #009AE3",
"N. c #00A1ED",
"B. c #809193",
"V. c #ABAB83",
"C. c #B1A687",
"Z. c #B7A688",
"A. c #AFB482",
"S. c #B2B882",
"D. c #CDA888",
"F. c #D9B18D",
"G. c #CDB690",
"H. c #D5BF9A",
"J. c #E3BA95",
"K. c #EABC92",
"L. c #EBC59A",
"P. c #E7C69D",
"I. c #F1C294",
"U. c #F7CA9F",
"Y. c #FACDA2",
"T. c #F3CDA1",
"R. c #FFDEAB",
"E. c #FED1A4",
"W. c None",
/* pixels */
"W.W.W.W.W.W.W.W.W.W.W.W.W.W.W.W.W.W.W.W.W.W.W.W.W.W.W.W.W.W.W.W.",
"W.W.W.W.W.W.W.W.W.W.W.W.W.W.W.W.W.W.W.W.W.W.W.W.W.W.W.W.W.W.W.W.",
"W.W.W.W.W.W.W.W.W.W.O O O O O O O O O O + O W.W.W.W.W.W.W.W.W.W.",
"W.W.W.W.W.W.W.W.W.$ 5 7 8 8 7 5 5 7 8 8 7 5 - W.W.W.W.W.W.W.W.W.",
"W.W.W.W.W.W.W.W.+ 0 k b Z Z Z k k Z Z Z b k 0 # W.W.W.W.W.W.W.W.",
"W.W.W.W.W.W.W.$ : f V H ] ] ' C C ' ] ] D V d 6 - W.W.W.W.W.W.W.",
"W.W.W.W.W.W.# 6 h V _ ' ' ' ' H ' ' ' ' ] _ V k 0 # W.W.W.W.W.W.",
"W.W.W.W.W.W.+ w V D ' ' ' ' F D A _ ' ' ] _ A V w + W.W.W.W.W.W.",
"W.W.W.W.W.W.# p _ ] _ ] H ] D N B A ] _ ] _ ] _ p # W.W.W.W.W.W.",
"W.W.W.W.W.- q x _ ] ] _ H D B N l V A _ ' _ ] _ x q - W.W.W.W.W.",
"W.W.W.W.O 6 k V _ ] _ ] D B l j h l B _ ' ' _ _ C k 6 + W.W.W.W.",
"W.W.W.W.O w V H _ _ _ A B N h : q k V _ ' ' ] _ H B w O W.W.W.W.",
"W.W.W.W.# w Z ] ] _ _ V l h d 0 0 d b D ] ' ' _ _ _ i + W.W.W.W.",
"W.W.W.W.# i _ ] ] ] _ V j 0 u F _ u q z A ] ] ] ] _ i O W.W.W.W.",
"W.W.W.W.O w Z ' _ Z Z z d 0 v 7.%.c 0 d z m Z _ _ Z w O W.W.W.W.",
"W.W.W.W.O q B C B f 8 5 w _ #.w.w.#.` u 5 8 f B C B q # W.W.W.W.",
"W.W.W.W.+ 6 d g d p 9 # 8 #.r.r.r.r.#.8 + 9 p d h d 6 + W.W.W.W.",
"W.W.W.W.W.- ; $ 6 G +.a y 7.I.I.K.I.7.i a +.G ; $ ; - W.W.W.W.W.",
"W.W.W.W.W.W.+ 3 s @.8.n y 0.Y.Y.Y.Y.0.y S 8.@.s 3 + W.W.W.W.W.W.",
"W.W.W.W.W.W.# n $.w.8.c y 0.Y.Y.Y.U.0.y c 8.w.$.c # W.W.W.W.W.W.",
"W.W.W.W.W.W.< S $.e.e.| ` Z.U.U.Y.Y.q.` | e.e.#.S # W.W.W.W.W.W.",
"W.W.W.W.W.W.W.9 v &.K.F.D.K.U.U.U.U.L.D.F.K.&.v 9 W.W.W.W.W.W.W.",
"W.W.W.W.W.W.W.W.# [ Z.L.E.E.U.Y.Y.U.E.E.P.Z.[ < W.W.W.W.W.W.W.W.",
"W.W.W.W.W.W.W.W.+ t ..C.U.Y.U.U.U.U.Y.U.C...t + W.W.W.W.W.W.W.W.",
"W.W.W.W.W.W.W.W.O 4 P 4.q.S.S.S.S.V.V.V.4.P e O W.W.W.W.W.W.W.W.",
"W.W.W.W.W.W.W.W.> r P W ,.<.3.3.1.,.! ! W I r > W.W.W.W.W.W.W.W.",
"W.W.W.W.W.W.W.n { o.O.! U *.=.=.-.*.U T ! O.o.{ n W.W.W.W.W.W.W.",
"W.W.W.W.W.W.< } F.L.G.4.Q *.;.;.=.<.*.R 4.G.U.F.| < W.W.W.W.W.W.",
"W.W.W.W.W.W.< +.T.R.L.5.R E *.:.:.:.-.R 5.L.R.T.X.3 W.W.W.W.W.W.",
"W.W.W.W.W.W.< X.J.Y.H.6.R Y Q >.<.<.>.Q 6.H.Y.F.| < W.W.W.W.W.W.",
"W.W.W.W.W.W.W.) X.B.k.j.f.f.g.d.d.h.h.f.j.k.B.X.) W.W.W.W.W.W.W.",
"W.W.W.W.W.W.W.% 2 u.b.n.v.v.l.i.i.l.v.v.M.b.u.2 % W.W.W.W.W.W.W.",
"W.W.W.W.W.W.W.  , y.m.N.m.c.s.~ ~ a.c.m.M.M.y.,   W.W.W.W.W.W.W.",
"W.W.W.W.W.W.W.X 1 ~ z.x.z.p.t.4 4 y.p.z.b.z.~ 1 X W.W.W.W.W.W.W.",
"W.W.W.W.W.W.W.@ < L ( / ^ K J O > J K ^ / ( L < @ W.W.W.W.W.W.W.",
"W.W.W.W.W.W.W.@ # q h l d 5 @ . . @ ; d j j 0 % @ W.W.W.W.W.W.W.",
"W.W.W.W.W.W.W.W.@ & = = * o   W.W.  o * = = & X W.W.W.W.W.W.W.W.",
"W.W.W.W.W.W.W.W.W.W.W.W.W.W.W.W.W.W.W.W.W.W.W.W.W.W.W.W.W.W.W.W.",
"W.W.W.W.W.W.W.W.W.W.W.W.W.W.W.W.W.W.W.W.W.W.W.W.W.W.W.W.W.W.W.W.",
"W.W.W.W.W.W.W.W.W.W.W.W.W.W.W.W.W.W.W.W.W.W.W.W.W.W.W.W.W.W.W.W."
};
