/* XPM */
static char *primo[] = {
/* columns rows colors chars-per-pixel */
"32 28 253 2 ",
"   c #546A8C",
".  c #546B8C",
"X  c #46749A",
"o  c #47769C",
"O  c #5D7998",
"+  c #5D7999",
"@  c #5E7998",
"#  c #5E7A98",
"$  c #427DA4",
"%  c #917FAE",
"&  c #348EB8",
"*  c #5482A5",
"=  c #5594B6",
"-  c #6486A3",
";  c #7493AC",
":  c #7998B1",
">  c #77A3BC",
",  c #3B97CA",
"<  c #3E99CB",
"1  c #24ACDE",
"2  c #35B1DD",
"3  c #04B5ED",
"4  c #07B4EC",
"5  c #21ADE6",
"6  c #3AA9E1",
"7  c #39BAEA",
"8  c #5C9FD7",
"9  c #7096CE",
"0  c #609CD5",
"q  c #639DD6",
"w  c #7099D1",
"e  c #7199D1",
"r  c #779CD0",
"t  c #43A6DD",
"y  c #45A7DE",
"u  c #4CA2DA",
"i  c #4EA6DC",
"p  c #57A6D2",
"a  c #55A2D5",
"s  c #54A7D8",
"d  c #56A6DA",
"f  c #59A5D8",
"g  c #7CA9C1",
"h  c #7DADC5",
"j  c #7EA8D7",
"k  c #75ABDB",
"l  c #7FAAD9",
"z  c #6CB1DD",
"x  c #7490EC",
"c  c #7692EE",
"v  c #65C8F0",
"b  c #68CBF2",
"n  c #72CCF0",
"m  c #74CDF1",
"M  c #BE879E",
"N  c #9E91BB",
"B  c #9E92BB",
"V  c #AA83A5",
"C  c #A985A7",
"Z  c #A283A9",
"A  c #A482A8",
"S  c #B589A4",
"D  c #AE88B0",
"F  c #AD8CB2",
"G  c #B18DB2",
"H  c #A692B8",
"J  c #9FADBF",
"K  c #A0A7B9",
"L  c #A3ADBF",
"P  c #BBA1BC",
"I  c #CB8A9A",
"U  c #CD8A98",
"Y  c #D28A96",
"T  c #D28C97",
"R  c #D78D98",
"E  c #D79196",
"W  c #D79599",
"Q  c #D89398",
"!  c #D7999B",
"~  c #D3999D",
"^  c #E0929E",
"/  c #C294A2",
"(  c #C195AC",
")  c #D896A7",
"_  c #D399A6",
"`  c #D79CA6",
"'  c #DF99AB",
"]  c #E29BAD",
"[  c #DEA5A7",
"{  c #D7A3AD",
"}  c #D8A3AE",
"|  c #DDAAB3",
" . c #DEABB3",
".. c #DCABB4",
"X. c #DEABB4",
"o. c #DAACB5",
"O. c #DCACB5",
"+. c #DFADB5",
"@. c #DDACB6",
"#. c #DEAEB6",
"$. c #D2A9BD",
"%. c #D3ACBF",
"&. c #DDAEB8",
"*. c #DFAEB8",
"=. c #CDB4BF",
"-. c #E6A2AC",
";. c #E9A1B3",
":. c #ECA1B3",
">. c #EDA1B3",
",. c #EDA2B5",
"<. c #E0ACB4",
"1. c #E0ADB5",
"2. c #EBACBD",
"3. c #E0B3BD",
"4. c #E1B5BD",
"5. c #E2B6BD",
"6. c #E0B7BF",
"7. c #F9C49D",
"8. c #F8C5A7",
"9. c #F8CEA3",
"0. c #FDD8A7",
"q. c #F7D9AB",
"w. c #F6DFAE",
"e. c #F5CFBF",
"r. c #F8D7B0",
"t. c #FDE0B3",
"y. c #FCE2B4",
"u. c #F5E8B5",
"i. c #FBE9B2",
"p. c #FBECB3",
"a. c #FBF2B6",
"s. c #FAF3B7",
"d. c #849ACD",
"f. c #9AB7C9",
"g. c #83A6D7",
"h. c #83A7D7",
"j. c #85A7D7",
"k. c #84A6D8",
"l. c #80ABD8",
"z. c #94A7D0",
"x. c #84B3DB",
"c. c #89B0DB",
"v. c #94B6DE",
"b. c #B3ADC3",
"n. c #BDADC8",
"m. c #BFB0CA",
"M. c #B5BEDD",
"N. c #849CEF",
"B. c #889FEF",
"V. c #939FE7",
"C. c #869CF0",
"Z. c #869DF0",
"A. c #869EF0",
"S. c #899FF0",
"D. c #8DA3EE",
"F. c #96A1E8",
"G. c #9BBBE0",
"H. c #87A5F0",
"J. c #8CA1F0",
"K. c #8DA2F2",
"L. c #8FA4F0",
"P. c #8EA5F0",
"I. c #8FA6F0",
"U. c #8EA4F2",
"Y. c #A0B8E1",
"T. c #A0B9E3",
"R. c #A5BDE1",
"E. c #A6B9EE",
"W. c #A6BAEE",
"Q. c #A8BCEB",
"!. c #A8BAED",
"~. c #A9BCEF",
"^. c #ADBEEE",
"/. c #D2AFC2",
"(. c #CAB8C3",
"). c #DCB5C3",
"_. c #D6BBC4",
"`. c #D6BBCA",
"'. c #E4BCC2",
"]. c #E4BCC4",
"[. c #E9BFCD",
"{. c #F0BCC3",
"}. c #F0BBC6",
"|. c #8AC0D5",
" X c #94C5D7",
".X c #96C1DF",
"XX c #96CADD",
"oX c #91CCDF",
"OX c #92CCDF",
"+X c #9ACADB",
"@X c #B9CAD9",
"#X c #96C3E1",
"$X c #99C6E2",
"%X c #91CCE0",
"&X c #90CBE4",
"*X c #93CDE4",
"=X c #97D2E7",
"-X c #9DD1E7",
";X c #97D8E9",
":X c #9EDAE9",
">X c #95C2F3",
",X c #98C3F3",
"<X c #A6C1E6",
"1X c #ABC5E6",
"2X c #AAC4E7",
"3X c #AEC6E7",
"4X c #B3CDE6",
"5X c #A0D7E6",
"6X c #AEDCEB",
"7X c #B3D4E5",
"8X c #B8D7EF",
"9X c #B7DAEF",
"0X c #A1C4F4",
"qX c #ADC5F3",
"wX c #A8C4F4",
"eX c #B8C5F3",
"rX c #B8C6F4",
"tX c #B1CAF2",
"yX c #B8C9F4",
"uX c #BAC8F5",
"iX c #B8DBF1",
"pX c #B8E6EF",
"aX c #CCC4CF",
"sX c #DECED1",
"dX c #E6C0C6",
"fX c #E8C0C0",
"gX c #EDC7C4",
"hX c #EEC9C5",
"jX c #EFCAC4",
"kX c #E3C0C9",
"lX c #F0C6CC",
"zX c #F9DBC3",
"xX c #F9DBC4",
"cX c #E4CED3",
"vX c #EBCCD1",
"bX c #EDD0D3",
"nX c #EFD0D5",
"mX c #FEE3C9",
"MX c #FDE6C9",
"NX c #FAE2D6",
"BX c #C1D8EB",
"VX c #DED6E1",
"CX c #DDD7E2",
"ZX c #C8E3F0",
"AX c #C9E5F1",
"SX c #C8EBF3",
"DX c #DDE7F2",
"FX c #D0E8F2",
"GX c #E8F1F7",
"HX c #EAF2F8",
"JX c #EDF3F9",
"KX c #F0F4FA",
"LX c None",
/* pixels */
"LXLXLXLXLXLXLXLXLXLXLXLXLXLXLXLXLXLXLXLXLXLXLXLXLXLXLXLXLXLXLXLX",
"LXLXLXLXLXLXLXLXLXLXLXLXLXLX} } LXLXLXLXLXLXLXLXLXLXLXLXLXLXLXLX",
"LXLXLXLXLXLXLXLXLXLXLXLXLXLXbXvXLXLXLXLXLXLXLXLXLXLXLXLXLXLXLXLX",
"LXLXLXLXLXLXLXLXLXLXLXLXLX .e.fX*.LXLXLXLXLXLXLXLXLXLXLXLXLXLXLX",
"LXLXLXLXLXLXLXLXLXLXLXLXLXjX8.[ ].LXLXLXLXLXLXLXLXLXLXLXLXLXLXLX",
"LXLXLXLXLXLXLXLXLXLXLXLX#.xX7.Q 6.#.LXLXLXLXLXLXLXLXLXLXLXLXLXLX",
"LXLXLXLXLXLXLXLXLXLXLXLXgXt.9.E ` ].LXLXLXLXLXLXLXLXLXLXLXLXLXLX",
"LXLXLXLXLXLXLXLXLXLXLX#.zXi.q.W Y 4. .LXLXLXLXLXLXLXLXLXLXLXLXLX",
"LXLXLXLXLXLXLXLXLXLXLXjXy.s.u.! Y _ kXLXLXLXLXLXLXLXLXLXLXLXLXLX",
"LXLXLXLXLXLXLXLXLXLX3.NX0.s.u.! U C n.*.LXLXLXLXLXLXLXLXLXLXLXLX",
"LXLXLXLXLXLXLXLX#.`.m.VXmXi.u.! M % G }._.#.LXLXLXLXLXLXLXLXLXLX",
"LXLXLXLXLXLX#.'.6.( Z N CXMXw.~ Z D ;.).f.L =.o.LXLXLXLXLXLXLXLX",
"LXLXLXLX1.lX{.-.Q R I % G cXr./ F /.@X5X;Xh : K (.o.LXLXLXLXLXLX",
"LXLX%.nX[.2.,.:.,.] ' ) S H aXP b.XXOXOXOXOX|.> ; L cX$.LXLXLXLX",
"LXLXF.eXM.z.d.r f d d d a 9 v.p * # # + @ # - g +X7XyXV.LXLXLXLX",
"LXLXLXLXP.Q.T.l s 5 4 3 6 G.DXk , X . . X =  XiXtXD.LXLXLXLXLXLX",
"LXLXLXLXLXLXP.~.R.j i t x.HXJXk.q < $ & 2 n 0XL.LXLXLXLXLXLXLXLX",
"LXLXLXLXLXLXLXLXN.^.T.l =XSXJXj.w 8 1 v >XA.LXLXLXLXLXLXLXLXLXLX",
"LXLXLXLXLXLXLXLXLXLXD.<X&XpXHXj.w y b H.LXLXLXLXLXLXLXLXLXLXLXLX",
"LXLXLXLXLXLXLXLXLXLXLXW.#X:XFXk.q 7 >XLXLXLXLXLXLXLXLXLXLXLXLXLX",
"LXLXLXLXLXLXLXLXLXLXLXK.1X*XAXj.z n A.LXLXLXLXLXLXLXLXLXLXLXLXLX",
"LXLXLXLXLXLXLXLXLXLXLXLXW..XZXc.-XwXLXLXLXLXLXLXLXLXLXLXLXLXLXLX",
"LXLXLXLXLXLXLXLXLXLXLXLXB.3XBX$XiXS.LXLXLXLXLXLXLXLXLXLXLXLXLXLX",
"LXLXLXLXLXLXLXLXLXLXLXLXLXW.4X6XqXLXLXLXLXLXLXLXLXLXLXLXLXLXLXLX",
"LXLXLXLXLXLXLXLXLXLXLXLXLXA.1X8XK.LXLXLXLXLXLXLXLXLXLXLXLXLXLXLX",
"LXLXLXLXLXLXLXLXLXLXLXLXLXLXrXeXLXLXLXLXLXLXLXLXLXLXLXLXLXLXLXLX",
"LXLXLXLXLXLXLXLXLXLXLXLXLXLXc c LXLXLXLXLXLXLXLXLXLXLXLXLXLXLXLX",
"LXLXLXLXLXLXLXLXLXLXLXLXLXLXLXLXLXLXLXLXLXLXLXLXLXLXLXLXLXLXLXLX"
};
