/* XPM */
static char *stone_moss[] = {
/* columns rows colors chars-per-pixel */
"48 48 200 2 ",
"   c #261B27",
".  c #271C28",
"X  c #2A1E2B",
"o  c #2D212E",
"O  c #2F2431",
"+  c #2F2933",
"@  c #312632",
"#  c #322B35",
"$  c #362B38",
"%  c #382E3A",
"&  c #2E3436",
"*  c #2F3638",
"=  c #323538",
"-  c #333A3C",
";  c #3B363C",
":  c #3E3642",
">  c #363E40",
",  c #3B3C42",
"<  c #453948",
"1  c #423746",
"2  c #374444",
"3  c #3A4445",
"4  c #3A4946",
"5  c #3C4B4B",
"6  c #3C524E",
"7  c #3E5451",
"8  c #3F5954",
"9  c #43434A",
"0  c #48424C",
"q  c #424D4C",
"w  c #494944",
"e  c #43524C",
"r  c #4D5D4D",
"t  c #565E4D",
"y  c #4D4052",
"u  c #564957",
"i  c #415553",
"p  c #425A55",
"a  c #4D5359",
"s  c #445E59",
"d  c #4A5B5B",
"f  c #4C5855",
"g  c #53525C",
"h  c #5A555E",
"j  c #51595D",
"k  c #5A5C5F",
"l  c #61485A",
"z  c #46615B",
"x  c #49655C",
"c  c #4D6B5E",
"v  c #506C5E",
"b  c #596854",
"n  c #4F745E",
"m  c #58634E",
"M  c #63775E",
"N  c #5F5360",
"B  c #5A5A64",
"V  c #575B62",
"C  c #694F62",
"Z  c #674F61",
"A  c #645161",
"S  c #6A5164",
"D  c #6E566B",
"F  c #6F596C",
"G  c #655E6F",
"H  c #705A6E",
"J  c #725D72",
"K  c #6A5C73",
"L  c #4C6F60",
"P  c #526C64",
"I  c #5A656C",
"U  c #5E6562",
"Y  c #4F7461",
"T  c #537462",
"R  c #537C63",
"E  c #5A7B64",
"W  c #557268",
"Q  c #59766A",
"!  c #63646E",
"~  c #666D6C",
"^  c #646873",
"/  c #6B6A7A",
"(  c #696574",
")  c #746177",
"_  c #76657C",
"`  c #79677F",
"'  c #73697E",
"]  c #796A7F",
"[  c #697677",
"{  c #73767C",
"}  c #6B7B66",
"|  c #817F7F",
" . c #568166",
".. c #5C8567",
"X. c #5A8368",
"o. c #5F886C",
"O. c #638267",
"+. c #6B8664",
"@. c #648668",
"#. c #658A69",
"$. c #6A8C6A",
"%. c #6C8666",
"&. c #738866",
"*. c #67906B",
"=. c #6E946D",
"-. c #72956E",
";. c #749B6F",
":. c #628A71",
">. c #688875",
",. c #6D937C",
"<. c #749C71",
"1. c #7A9F70",
"2. c #779879",
"3. c #7DA273",
"4. c #818C7D",
"5. c #86AB75",
"6. c #8DA67F",
"7. c #88A879",
"8. c #90AE7E",
"9. c #8AB177",
"0. c #8CB379",
"q. c #90B57B",
"w. c #92B97C",
"e. c #766B81",
"r. c #7B6B83",
"t. c #7E6F89",
"y. c #7F708A",
"u. c #7A7584",
"i. c #827C87",
"p. c #80728B",
"a. c #827B88",
"s. c #867E94",
"d. c #6F8C81",
"f. c #77858A",
"g. c #7A858C",
"h. c #758988",
"j. c #7A9988",
"k. c #7E8D92",
"l. c #7D9194",
"z. c #7EA08B",
"x. c #848386",
"c. c #868C84",
"v. c #84808D",
"b. c #879687",
"n. c #8A8496",
"m. c #838992",
"M. c #898598",
"N. c #8E8E9E",
"B. c #878995",
"V. c #87949B",
"C. c #89959D",
"Z. c #899B9C",
"A. c #829796",
"S. c #909B97",
"D. c #82A38F",
"F. c #96BB85",
"G. c #83A590",
"H. c #88A594",
"J. c #96AF9F",
"K. c #94B299",
"L. c #8E9AA2",
"P. c #9694A1",
"I. c #929DA6",
"U. c #959FA9",
"Y. c #989AA5",
"T. c #94ABA4",
"R. c #98AEA4",
"E. c #95A3AB",
"W. c #98A7AF",
"Q. c #99ABAC",
"!. c #98A4A6",
"~. c #98B4A2",
"^. c #9AB5A7",
"/. c #9BABB2",
"(. c #A1A8AD",
"). c #A2BDAC",
"_. c #A4ADB2",
"`. c #A1B1B6",
"'. c #A4B5B8",
"]. c #AABCBC",
"[. c #A6B5B2",
"{. c #B1BBBB",
"}. c #A4C598",
"|. c #AAC7A9",
" X c #B0CDAD",
".X c #ABC3B6",
"XX c #B4CABD",
"oX c #B3CAB6",
"OX c #B7D1B9",
"+X c #AEC1C0",
"@X c #B6CBC2",
"#X c #B9CCC6",
"$X c #B6C9C4",
"%X c #BCD3C3",
"&X c #BED3C9",
"*X c #C2D6CD",
"=X c #C5DACE",
"-X c #C7DBD0",
";X c #C8DDD1",
":X c None",
/* pixels */
":X:X:X:X:X:X:X:X:X:X:X:X:X:X:X:X:X:X:X:X:X. X . X . . . o . . :X:X:X:X:X:X:X:X:X:X:X:X:X:X:X:X:X",
":X:X:X:X:X:X:X:X:X:X:X:X:X:X:X:X:X:X:X:X:X< 1 = = ; ; = # ; 1 :X:X:X:X:X:X:X:X:X:X:X:X:X:X:X:X:X",
":X:X:X:X:X:X:X:X:X:X:X:X:X:X:X:X:X:X:X. < oXH.n n  .5.} 8 k.m.# o o . o :X:X:X:X:X:X:X:X:X:X:X:X",
":X:X:X:X:X:X:X:X:X:X:X:X:X:X:X:X:X:X:Xg [ *X.XG.2.;.w.5.@.h.h.m t t k h :X:X:X:X:X:X:X:X:X:X:X:X",
":X:X:X:X:X:X:X:X:X:X:X:X:X:X:X:X:X:X# m.'.*X=X*X}.w.q.w.0.T P 9.q.w.R.V.% O :X:X:X:X:X:X:X:X:X:X",
":X:X:X:X:X:X:X:X:X:X:X:X:X:X:X:X  h g.E./.].].].oX|.=.$.*.c x E ;.w.>.[ &.m . :X:X:X:X:X:X:X:X:X",
":X:X:X:X:X:X:X:X:X:X:X:X:X:X:X:XX ! /./././././.#X@X,.#...c z c $.w.T P F.&.: :X:X:X:X:X:X:X:X:X",
":X:X:X:X:X:X:X:X:X:X:X:X:X:X:X:XX ! /./././././.&X-X%X|.9.T c 5.0.w.Q Q &X.XL.0 . :X:X:X:X:X:X:X",
":X:X:X:X:X:X:X:X:X:X:X:X:X:X:X:XX ! /./././././..X@X XK.;.%.#.3.1.-.c P T.).].{ g :X:X:X:X:X:X:X",
":X:X:X:X:X:X:X:X:X:X:X:X:X:X:X:XO I /././././././.Q.w.=.z 3.5.X.n z s x R H.-X].C.$ o :X:X:X:X:X",
":X:X:X:X:X:X:X:X:X:X:X:X:X.   ; u.V././.`.#X#X&X&XoXF.=.z o.=.3.@.p p d R G.;X].C.$ o :X:X:X:X:X",
":X:X:X:X:X:X:X:X:X:X:X:X% 1 : a W./././.'.-X&X@X@X.X0.*.s n o.9.-.v W Q :.~.-X'.B.1 $ :X:X:X:X:X",
":X:X:X:X:X:X:X:X:X:X:XX G Z.I.E././././.'.;X^.:.#.o...n s Y R X.-.9.|.*X#X*X;XP.y.e.g X :X:X:X:X",
":X:X:X:X:X:X:X:X:X:X. o ! `./././././././.$XR.d.j.D.H.j.j.j.D.D.K.|.%X;X-X*X_.s.y.y.J < % :X:X:X",
":X:X:X:X:X:XO o O O @ @ ! /././././././././././.#X-X=X=X=X=X=X=X=X=X=X=X=X_.t.y.y.y.p.p.< X :X:X",
":X:X:X:X. # z e 5 p v S.!./././././././././././.Y.P.P.P.P.P.P.P.P.P.P.P.P.n.y.y.y.y.y.t.< o :X:X",
":X:X:X:X# - X.T z  .j.=X+X!./././././././././.W.s.t.t.t.t.t.t.t.t.t.t.t.t.t.t.y.y.i.i.i.< o :X:X",
":X:X:Xo 5 v 9.$.z 1.F.-X XF.R./.W./././.W./././.s.p.p.p.t.t.t.t.t.t.t.t.t.t.t.t.i.8.q.8.w . :X:X",
":X:X:XO p T -.$...;.9. X}.w.).+X.X'././././././.s.t.t.a.c.p.p.c.i.t.x.x.y.i.c.{ ~ &.+.+.~ g :X:X",
":X:XO # v R z $.q.#.o.0.q.w.OX*X-X+X/././././.W.s.p.t.c.w.x.a.q.6.t.6.7.t.c.w.E i 2 - - m.C.% o ",
":X. t &.3.;.z #.w.#. . .#.*.j.j.d.T.#X'././.I.s.p.y.p.b.w.6.6.w.2.U 7.7.g } w.E p - j k.E.C.$ o ",
":Xo b 0.w.3.x #.5.o.n z Y R :.:.W A.*X`.U.E.N.p.a.p._ 4.w.9.5.5.@.z 1.5.2 b 5.T p q [ /.E.m.$ o ",
":Xo e #.9.5.R Y c x x R R  .).%X#X.X`.M.p.p.p.p.I.V.9 M w.O.x w e z 5.5.z z c s P Z.E./.] Z @ o ",
":Xo 5  .;.<.X.c s x R z.z.G..X#X#XQ.M.p.p.p.p.p.U.C.- r +.z 5 * 4 p O.-.O.O...} [ m.B.B.) u @ o ",
":Xo q  . . .X.Y z T ,.*X=X*X'././.a.C r.p.t.t.t.U.L.3 - > - - > 5 z z T 0.q.w.w.7.D C C C l @ o ",
":Xo ~ |.).).).^.Q.`..X=X{.P.M.M.M.` C r.p.t.p.p.I.E.g.g.g.g.g.g.k.l.l.A.J.~.R.b.| S N j Z l @ o ",
":XX { -X*X*X*X*X*X*X*X*X(.r.y.y.p.J C _ t.t.t.p.L.I.I.E.I.!.!.I.!.I.Y.Y.I.I.I.s.r.S h s V u @ o ",
":XX ^ './.'.`.`.`.`.`.`.P.t.y.y.p.J C r.t.p.p.t.J D H H H H F F H H J H H H H r.r.S h s s a + o ",
":Xo ^ /././././././././.M.p.p.p.p._ S r.t.p.t.t.D C C C C C C C C C C C C C C ` r.S A j d i @ o ",
":XX ^ /././././././././.N.r.p.p.p.J C r.p.t.t.t.D C C C S C C C S S C C C C C _ r.S S S d 7 + O ",
":XX ! /././././././././.N.p.p.p.p.J C r.p.t.p.t.H C C H _ _ _ _ _ J _ _ S C C r.r.S h j d 8 @ X ",
":Xo ^ /././././././././.N.p.p.p.p.J S r.t.p.t.p.D C C J p.p.p.p.p.p.p.r.S C C r.r.S h p p 7 + O ",
":XO ! /././.W./././././.C.t.p.t.y.t.r.t.y.y.y.t.F C C J p.p.p.p.p.p.p.r.S C C r.r.C u - > - O o ",
":XX ^ /././././././././.N.p.p.t.y.y.y.y.y.y.y.t.D C C F _ _ _ p.r.p.p.r.S Z C r.r.D u - - * o :X",
":XX ^ /././././././././.N.t.t.t.y.y.y.y.y.y.y.t.F C C C C C D t.p.p.p.r.Z Z C r.r.S y - - - :X:X",
":XX ^ /././././././././.N.t.t.p.y.y.y.y.y.y.y.t.D C C N j A C H J r.p.e.V N C e.r.V q - & :X:X:X",
":Xo B E.W./././././././.N.t.p.t.y.y.y.y.y.y.y.t.F C Z h s V A C J p.t.e.s a A e.e.s 4 * :X:X:X:X",
":X@ $ :XW./././././././.N.p.p.t.t.y.y.y.y.y.y.t.D C Z h s s d Z J p.t.e., 5 d e.e.4 - :X:X:X:X:X",
":X. :X:X/./././././.W.I.n.t.t.t.y.y.y.y.y.y.t.t.H Z N V s s d h K p.p.e., > 7 / _ > - :X:X:X:X:X",
":X:X:X:XE.W././././.U.p.t.t.t.p.y.y.y.y.y.y.t.t.D A s s s s s s ^ p.p.J > > > K e.> - :X:X:X:X:X",
":X:X:X:X:XV././././.U.p.y.y.y.y.y.y.y.y.y.y.e.H B a 4 4 :Xs s 2 B y.y._ > - :Xe.r.:X:X:X:X:X:X:X",
":X:X:X:X:X:XI.E././.E.p.y.y.y.y.y.y.y.y.y.y.) A d 7 - - :Xp 7 - V y.r./ 3 - :Xe.e.:X:X:X:X:X:X:X",
":X:X:X:X:X:X:XE././.U.p.y.y.y.y.y.y.y.y.y.y.^ d 4 - - - :X- - - g t.I d p i :X:X:X:X:X:X:X:X:X:X",
":X:X:X:X:X:X:X:XV.C.g.K ^ / t.y.y.y.y.y.y.p.^ s 2 - - - :X- - & a / d 6 7 :X:X:X:X:X:X:X:X:X:X:X",
":X:X:X:X:X:X:X:X:X:X:X> 5 L e.r.t.p.t.r.t.t.^ z 2 - - = :X- - :X:Xs 2 - :X:X:X:X:X:X:X:X:X:X:X:X",
":X:X:X:X:X:X:X:X:X:X:X- 5 s a g I ! J D :XI d 4 - - :X:X:X:X:X:X:X:X:X:X:X:X:X:X:X:X:X:X:X:X:X:X",
":X:X:X:X:X:X:X:X:X:X:X* 4 8 > * 7 a l :X:X8 2 * * = :X:X:X:X:X:X:X:X:X:X:X:X:X:X:X:X:X:X:X:X:X:X",
":X:X:X:X:X:X:X:X:X:X:X:X:X:X:X:X:X:X:X:X:X:X:X:X:X:X:X:X:X:X:X:X:X:X:X:X:X:X:X:X:X:X:X:X:X:X:X:X"
};
