/* XPM */
static char *_9df052a9290492dc0e9712747a01e04KyWyH9mkB9qsOKE2[] = {
/* columns rows colors chars-per-pixel */
"15 16 8 1 ",
"  c None",
". c #0E071B",
"X c #891E2B",
"o c #C42430",
"O c #FFA214",
"+ c #FFC825",
"@ c #F9E6CF",
"# c white",
/* pixels */
"               ",
"     ...       ",
"    .ooX.      ",
"   ..oX.       ",
"  .####.  . .  ",
" .O##.#. .@.#. ",
" .OO#.#@.@##@. ",
"  ..#######@.  ",
"  .#@###.#@@@. ",
"  .@#@..#@@..  ",
"   .@#@#@..    ",
"    .....      ",
"    .+.OO.     ",
"   .+. .O.     ",
"               ",
"               "
};
