/* XPM */
static char *_0f702a0c49f4620d861e66560814f1f8i7pU6SxVUyUQX0W[] = {
/* columns rows colors chars-per-pixel */
"45 59 10 1 ",
"  c None",
". c #091B15",
"X c #3F2832",
"o c #743F39",
"O c #134C4C",
"+ c #1E6F50",
"@ c #91533B",
"# c #B86F50",
"$ c #33984B",
"% c #5AC54F",
/* pixels */
"                                             ",
"                                             ",
"                     ..                      ",
"            ... ..  .$$...                   ",
"          ..$$$.$$..$$$.$$. ..               ",
"         .$.%%$$.$$$$%%$$%$.$$.              ",
"        ..$$.%%$%%$$%%%$%%.$$$...            ",
"       .%$.$%%%%%%$%%%%%%%%$%%.%%.           ",
"       .%%%%%%%%%%%%%%%%%%%%%%%%%...         ",
"      ..%%%%%%%%%%%%%%%%%%%%%%%%%.$$.        ",
"     .$$.$$%%%%%%%%%%%%%%%%%%%%%%$%$...      ",
"     .$$%%$%%%%%%%%%%%%%%%%%%%%%$%%$.$$.     ",
"     ..$$%%%%%%%%%%%%%%%%%%%%%%%%%%.%%$.     ",
"    .$$.$%%$$%%%%%%%%%%%%%%%%%%%%%$%%%$.     ",
"    .$$$$$$$%%%%%%%%%%%%%%%%%%%%%%%%%%...    ",
"     .$$%%$%%%%%%%%%%%%%%%%%%%%%%%%%%$$%%.   ",
"    .$$%%$$%%%%%%%%%%%%%%%%%%%%%%%%%%%$$%.   ",
"   ..$$$$$$$%%%%%%%%%%%%%%%%%%%$%%%%%%%$..   ",
"  .$$.$%%$%%$%%%%%%%%%%%%%%%%%$%%%%%%%%%$$.  ",
"  .$$%%%$%%%%%%%%%%%%%%%%%%%%%$$%%%%%$%%$$.  ",
"   .$$%%%%%%%%%%%%%%%%%%%%$%$$$$$%%%$$$$$.   ",
"  ..$$$%%%%%%%%%$%%%%%%%%%%$$%$$$$$$$$%$.    ",
"  .%.$%%%%%%%%%%$$$%%%%%%%%%%%%$$$%%$$%%..   ",
"  .+$$%%$%%%%%%$$%$%%%%%%%%%%$$$$$%%%$%%%%.  ",
"   .$$%$$$%%%%$$%%%%%%%%%%%%%%$$%$$%%$$%%%.  ",
"   ..$$$$%%%%%%$$%%%%%%%%%%%%%%%%$$$$$$$%.   ",
"  .+$$$$$%%%%$$$$%%%$%%%%%%%%%%%$$%%$$$$.    ",
"  .++.$$%%%%%%$$%%%$$%%%$$$%%%%%%%%$$$$$.    ",
"   ..+$$%%%$%%$$%%$$$$%%%$%%%%%%%%$$$$$..    ",
"    .$$$%%$$$$$$$$$%%$$%%$%%$%%$%%%$$$.++.   ",
"    .$$$$$$$$$$$$$%%$$$$$$$$$$%$$%%$$$+++.   ",
"   .+$++$$$$$$$+$$$$$$$$$$$$$$$$$$$+$$$+.    ",
"   .+++$$$++$$+$$$$$$$$$$$$$$$$$+$$$+$..     ",
"    .++$$++$$$++$$+$$$$$$$$++$$+++$$+..      ",
"    ...++++$$+++++$$$+$$+$$$++$$++++++O.     ",
"     .O++O++++++++$$++$$$+$$++++++OOOOO.     ",
"     .OO.++++O+++++++++$$+++++OO++O.O..      ",
"      ..O++O.O++O++++++++++O+++OOOOO.        ",
"       .OOO.O++O++O++O++O+++O++O.OOO.        ",
"        ...OO.O++O++OOO++O+O.OOOO...         ",
"           ..OOO.OOOO.OOO.OOO..OO.           ",
"            .OO.OOOO.X.O.X.OO. ..            ",
"             ...OO..XX..XXX..                ",
"                ..XXooXXXXoX                 ",
"                  X@ooXooX@X                 ",
"                  X#@oo@oX@X                 ",
"                  X##@o#@ooX                 ",
"                  X#@oo#@o@X                 ",
"                  Xo@o##@o@X                 ",
"                  Xooo@#oo@X                 ",
"                  X@oX@oo@@X                 ",
"                 X#@@XooXo@#X                ",
"                 X##@X@XXX##X                ",
"                X#@@Xo@#XXX@#X               ",
"                X#oXXo##X Xo@#X              ",
"               X#oX  X@#X                    ",
"                     XX@#X                   ",
"                                             ",
"                                             "
};
